<?xml version="1.0" standalone="no"?>
<!DOCTYPE svg PUBLIC "-//W3C//DTD SVG 20010904//EN"
 "http://www.w3.org/TR/2001/REC-SVG-20010904/DTD/svg10.dtd">
<svg version="1.0" xmlns="http://www.w3.org/2000/svg"
 width="700.000000pt" height="700.000000pt" viewBox="0 0 700.000000 700.000000"
 preserveAspectRatio="xMidYMid meet">
<metadata>
Created by potrace 1.11, written by Peter Selinger 2001-2013
</metadata>
<g transform="translate(0.000000,700.000000) scale(0.100000,-0.100000)"
fill="#000000" stroke="none">
<path d="M2658 5945 c-2 -2 -30 -6 -63 -9 -240 -25 -501 -116 -715 -249 -165
-103 -355 -273 -450 -402 -24 -33 -49 -65 -54 -72 -28 -32 -36 -43 -36 -47 0
-3 -15 -29 -33 -58 -52 -83 -113 -206 -142 -288 -23 -64 -84 -270 -84 -285 0
-8 -13 -97 -17 -120 -3 -11 -7 -83 -10 -160 -3 -77 -9 -143 -13 -146 -3 -3
-37 -18 -76 -34 -93 -38 -184 -87 -270 -146 -103 -70 -130 -92 -246 -209 -239
-242 -399 -572 -437 -905 -9 -77 -8 -302 1 -380 22 -182 70 -343 156 -513 82
-164 191 -313 319 -433 82 -78 195 -167 242 -191 14 -7 27 -16 30 -20 9 -11
199 -103 245 -119 22 -7 45 -16 50 -20 6 -3 56 -18 111 -33 220 -57 118 -55
2429 -55 1343 0 2148 4 2180 10 28 5 64 12 80 14 61 9 89 16 193 52 399 134
707 432 862 832 29 75 68 229 77 303 9 77 10 293 1 368 -26 225 -130 478 -275
668 -191 252 -503 452 -806 517 -22 4 -27 10 -22 23 34 80 57 206 60 327 6
259 -58 464 -212 671 -198 266 -520 419 -863 410 -188 -6 -364 -55 -502 -142
-21 -13 -42 -24 -47 -24 -5 0 -26 27 -46 60 -20 33 -42 66 -48 73 -7 6 -25 31
-40 53 -38 57 -197 220 -278 285 -223 182 -483 307 -759 364 -3 1 -30 5 -60
10 -30 4 -66 10 -80 13 -28 5 -347 11 -352 7z"/>
</g>
</svg>
